<svg xmlns="http://www.w3.org/2000/svg" xmlns:xlink="http://www.w3.org/1999/xlink" viewBox="0 0 900 744"><defs><style>.cls-1{fill:none;}.cls-2{clip-path:url(#clip-path);}.cls-3{fill:#bf0a30;}.cls-4{fill:#f0f;}.cls-5{fill:#fed700;}.cls-6{fill:#002868;}.cls-7{fill:#ce5c17;}.cls-8{font-size:128px;}.cls-8,.cls-9{fill:#fff;font-family:Roboto-Medium, Roboto;font-weight:500;}.cls-9{font-size:47px;}</style><clipPath id="clip-path" transform="translate(0 72)"><circle class="cls-1" cx="450" cy="300" r="372"/></clipPath></defs><title>copa_logo</title><g id="Flag"><g class="cls-2"><path class="cls-3" d="M0,0H900V300H0Z" transform="translate(0 72)"/><path class="cls-4" d="M0,195.33,450,300,0,70.32Z" transform="translate(0 72)"/><path id="a" class="cls-5" d="M0,195.33,450,300,0,70.32Z" transform="translate(0 72)"/><path id="b" class="cls-5" d="M103.14,0,450,300,232.83,0Z" transform="translate(0 72)"/><path id="c" class="cls-5" d="M332.82,0,450,300,407.79,0Z" transform="translate(0 72)"/><path id="a-2" data-name="a" class="cls-5" d="M900,195.33,450,300,900,70.32Z" transform="translate(0 72)"/><path id="b-2" data-name="b" class="cls-5" d="M796.86,0,450,300,667.17,0Z" transform="translate(0 72)"/><path id="c-2" data-name="c" class="cls-5" d="M567.18,0,450,300,492.21,0Z" transform="translate(0 72)"/><path class="cls-6" d="M0-72H900V185.16H0Z" transform="translate(0 72)"/><path class="cls-3" d="M900,600H0V300H900Z" transform="translate(0 72)"/><path class="cls-4" d="M900,404.67,450,300,900,529.68Z" transform="translate(0 72)"/><path id="a-3" data-name="a" class="cls-5" d="M900,404.67,450,300,900,529.68Z" transform="translate(0 72)"/><path id="b-3" data-name="b" class="cls-5" d="M796.86,600,450,300,667.17,600Z" transform="translate(0 72)"/><path id="c-3" data-name="c" class="cls-5" d="M567.18,600,450,300l42.21,300Z" transform="translate(0 72)"/><path id="a-4" data-name="a" class="cls-5" d="M0,404.67,450,300,0,529.68Z" transform="translate(0 72)"/><path id="b-4" data-name="b" class="cls-5" d="M103.14,600,450,300,232.83,600Z" transform="translate(0 72)"/><path id="c-4" data-name="c" class="cls-5" d="M332.82,600,450,300,407.79,600Z" transform="translate(0 72)"/><path class="cls-6" d="M0,414.84H900V672H0Z" transform="translate(0 72)"/><path class="cls-7" d="M450,148.64l97.53,300.17L292.19,263.29H607.81L352.47,448.81Z" transform="translate(0 72)"/></g></g><g id="Text"><text id="ARA" class="cls-8" transform="translate(179.91 210.04)">Maricopa</text><text class="cls-9" transform="translate(293.58 601.66)">Amateur Radio <tspan x="31.87" y="56.4">Association</tspan></text></g></svg>